<svg width="359" height="130" viewBox="0 0 359 130" fill="none" xmlns="http://www.w3.org/2000/svg">
<path d="M132.697 78.4771H152.575V83H127.137V41.0547H132.697V78.4771Z" fill="black"/>
<path d="M199.885 69.6616H169.156V102H159.5V28.7734H204.864V36.7197H169.156V61.7656H199.885V69.6616Z" fill="black"/>
<path d="M224.252 66.0317H214.4V83H208.84V41.0547H222.726C227.45 41.0547 231.08 42.1302 233.615 44.2812C236.17 46.4323 237.447 49.5628 237.447 53.6729C237.447 56.2848 236.736 58.5607 235.315 60.5005C233.913 62.4403 231.954 63.8903 229.438 64.8506L239.291 82.6543V83H233.356L224.252 66.0317ZM214.4 61.5088H222.898C225.645 61.5088 227.825 60.7982 229.438 59.377C231.07 57.9557 231.887 56.0544 231.887 53.6729C231.887 51.0801 231.109 49.0923 229.553 47.7095C228.017 46.3267 225.789 45.6257 222.87 45.6064H214.4V61.5088Z" fill="black"/>
<path d="M270.578 63.6118H252.4V78.4771H273.517V83H246.869V41.0547H273.229V45.6064H252.4V59.0889H270.578V63.6118Z" fill="black"/>
<path d="M281.867 83V41.0547H293.708C297.357 41.0547 300.583 41.8613 303.387 43.4746C306.191 45.0879 308.352 47.383 309.869 50.3599C311.406 53.3368 312.183 56.7554 312.203 60.6157V63.2949C312.203 67.2513 311.434 70.7179 309.898 73.6948C308.381 76.6717 306.201 78.9572 303.358 80.5513C300.535 82.1453 297.241 82.9616 293.477 83H281.867ZM287.398 45.6064V78.4771H293.218C297.481 78.4771 300.794 77.1519 303.157 74.5015C305.538 71.8511 306.729 68.0771 306.729 63.1797V60.731C306.729 55.9679 305.605 52.2708 303.358 49.6396C301.131 46.9893 297.962 45.6449 293.852 45.6064H287.398Z" fill="black"/>
<path d="M111.145 72.0527H93.5713L89.6245 83H83.9204L99.938 41.0547H104.778L120.824 83H115.149L111.145 72.0527ZM95.2422 67.501H109.502L102.358 47.8823L95.2422 67.501Z" fill="black"/>
<path d="M39.8895 96.4014C48.1148 96.4014 54.7828 88.9061 54.7828 79.6602C54.7828 70.4142 48.1148 62.9189 39.8895 62.9189C31.6641 62.9189 24.9962 70.4142 24.9962 79.6602C24.9962 88.9061 31.6641 96.4014 39.8895 96.4014Z" fill="#90CAF9" stroke="#263238" stroke-linecap="round" stroke-linejoin="round"/>
<path d="M61.1827 90.809C64.3811 86.3015 66.3828 80.8706 66.9575 75.1411C67.5321 69.4116 66.6564 63.6161 64.4311 58.4212C62.2057 53.2262 58.7211 48.8429 54.378 45.7752C50.0349 42.7075 45.0097 41.08 39.8803 41.08C34.751 41.08 29.7257 42.7075 25.3826 45.7752C21.0395 48.8429 17.5549 53.2262 15.3296 58.4212C13.1043 63.6161 12.2286 69.4116 12.8032 75.1411C13.3779 80.8706 15.3795 86.3015 18.578 90.809H61.1827Z" fill="white" stroke="#263238" stroke-linecap="round" stroke-linejoin="round"/>
<path d="M56.5556 60.1485H22.536C20.4664 60.1485 18.7886 62.0344 18.7886 64.3608V77.9145C18.7886 80.2409 20.4664 82.1268 22.536 82.1268H56.5556C58.6252 82.1268 60.303 80.2409 60.303 77.9145V64.3608C60.303 62.0344 58.6252 60.1485 56.5556 60.1485Z" fill="#90CAF9" stroke="#263238" stroke-linecap="round" stroke-linejoin="round"/>
<path d="M23.2782 70.2468C23.7281 68.8308 24.5481 67.6006 25.6307 66.7174C26.7134 65.8343 28.0081 65.3394 29.3452 65.2977C30.6824 65.2559 31.9995 65.6692 33.1241 66.4835C34.2487 67.2977 35.1281 68.4748 35.6473 69.8606" stroke="#263238" stroke-width="5" stroke-linecap="round" stroke-linejoin="round"/>
<path d="M43.7971 70.2468C44.247 68.8308 45.067 67.6006 46.1497 66.7174C47.2323 65.8343 48.527 65.3394 49.8641 65.2977C51.2013 65.2559 52.5184 65.6692 53.643 66.4835C54.7676 67.2977 55.6471 68.4748 56.1662 69.8606" stroke="#263238" stroke-width="5" stroke-linecap="round" stroke-linejoin="round"/>
<path d="M36.2977 75.3397C36.4127 76.3609 36.8552 77.2998 37.5422 77.9804C38.2291 78.6611 39.1134 79.0366 40.0291 79.0366C40.9448 79.0366 41.829 78.6611 42.516 77.9804C43.2029 77.2998 43.6454 76.3609 43.7604 75.3397H36.2977Z" fill="white" stroke="#263238" stroke-linecap="round" stroke-linejoin="round"/>
<path d="M75.1459 77.0803C74.3902 77.0803 73.6654 76.7428 73.131 76.1421C72.5967 75.5415 72.2965 74.7268 72.2965 73.8773V66.5906C72.2958 66.1696 72.3691 65.7525 72.512 65.3633C72.655 64.9741 72.8648 64.6204 73.1294 64.3224C73.3941 64.0244 73.7084 63.788 74.0544 63.6268C74.4004 63.4655 74.7713 63.3824 75.1459 63.3825C75.5205 63.3818 75.8915 63.4641 76.2378 63.6248C76.584 63.7854 76.8987 64.0213 77.1638 64.3188C77.4288 64.6163 77.6391 64.9696 77.7826 65.3585C77.9261 65.7475 78 66.1644 78 66.5855V73.8721C78.0006 74.2936 77.9272 74.7111 77.784 75.1006C77.6407 75.4902 77.4305 75.8441 77.1654 76.1421C76.9003 76.4402 76.5854 76.6765 76.2388 76.8375C75.8923 76.9984 75.5209 77.081 75.1459 77.0803Z" fill="#263238" stroke="#263238" stroke-linecap="round" stroke-linejoin="round"/>
<path d="M3.85406 77.0803C3.47947 77.081 3.10845 76.9986 2.7622 76.8379C2.41596 76.6773 2.1013 76.4415 1.83621 76.144C1.57113 75.8465 1.36083 75.4931 1.21735 75.1042C1.07386 74.7153 1 74.2983 1 73.8773V66.5906C0.9994 66.1691 1.07281 65.7517 1.21603 65.3621C1.35924 64.9726 1.56945 64.6186 1.83459 64.3206C2.09973 64.0225 2.4146 63.7863 2.76114 63.6253C3.10769 63.4643 3.47909 63.3818 3.85406 63.3825C4.22825 63.3825 4.59879 63.4653 4.9445 63.6263C5.29022 63.7872 5.60434 64.0232 5.86894 64.3206C6.13354 64.618 6.34343 64.9711 6.48663 65.3597C6.62983 65.7483 6.70353 66.1649 6.70353 66.5855V73.8721C6.70413 74.2932 6.63087 74.7102 6.48794 75.0994C6.34501 75.4886 6.13522 75.8423 5.87056 76.1403C5.6059 76.4383 5.29158 76.6747 4.94556 76.836C4.59955 76.9973 4.22864 77.0803 3.85406 77.0803Z" fill="#263238" stroke="#263238" stroke-linecap="round" stroke-linejoin="round"/>
<path d="M12.9889 44.2003C10.4685 48.3865 9.12464 53.3273 9.13162 58.3821V63.6759" stroke="#263238" stroke-width="14" stroke-linecap="round" stroke-linejoin="round"/>
<path d="M67.083 44.2209C65.0204 40.7665 62.2331 37.936 58.9669 35.979C55.7008 34.0221 52.0564 32.999 48.3553 33H31.7028C28.0068 32.9971 24.3669 34.0157 21.1036 35.9662C17.8402 37.9166 15.0535 40.739 12.9888 44.1849" stroke="#263238" stroke-width="7" stroke-linecap="round" stroke-linejoin="round"/>
<path d="M70.9221 63.6759V58.3822C70.9291 53.3367 69.592 48.4045 67.0831 44.2209" stroke="#263238" stroke-width="14" stroke-linecap="round" stroke-linejoin="round"/>
<path d="M11.4038 57.9754H7.58315C5.37184 57.9754 3.57922 59.9904 3.57922 62.4761V77.3532C3.57922 79.8389 5.37184 81.8539 7.58315 81.8539H11.4038C13.6151 81.8539 15.4077 79.8389 15.4077 77.3532V62.4761C15.4077 59.9904 13.6151 57.9754 11.4038 57.9754Z" fill="white" stroke="#263238" stroke-linecap="round" stroke-linejoin="round"/>
<path d="M10.0981 57.9754H8.89325V81.8539H10.0981V57.9754Z" fill="#90CAF9" stroke="#263238" stroke-linecap="round" stroke-linejoin="round"/>
<path d="M71.7467 57.9754H67.926C65.7147 57.9754 63.9221 59.9904 63.9221 62.4761V77.3532C63.9221 79.8389 65.7147 81.8539 67.926 81.8539H71.7467C73.958 81.8539 75.7506 79.8389 75.7506 77.3532V62.4761C75.7506 59.9904 73.958 57.9754 71.7467 57.9754Z" fill="white" stroke="#263238" stroke-linecap="round" stroke-linejoin="round"/>
<path d="M70.4411 57.9754H69.2362V81.8539H70.4411V57.9754Z" fill="#90CAF9" stroke="#263238" stroke-linecap="round" stroke-linejoin="round"/>
<path d="M39.9856 55.8074C42.0725 55.808 44.1263 55.2211 45.9596 54.1003C47.7928 52.9795 49.3473 51.3606 50.481 49.3911L53.0647 44.8955C48.9705 42.3539 44.363 41.0401 39.686 41.0807C35.009 41.1213 30.4201 42.5149 26.3612 45.1272L30.2506 50.5549C31.4207 52.1928 32.9026 53.515 34.5874 54.424C36.2721 55.333 38.1168 55.8058 39.9856 55.8074Z" fill="#90CAF9" stroke="#263238" stroke-linecap="round" stroke-linejoin="round"/>
<path d="M40.6316 84.3514C40.6316 84.2496 40.6047 84.15 40.5544 84.0653C40.504 83.9807 40.4325 83.9147 40.3488 83.8757C40.265 83.8367 40.1729 83.8265 40.0841 83.8464C39.9952 83.8663 39.9136 83.9153 39.8495 83.9873C39.7854 84.0593 39.7418 84.1511 39.7241 84.251C39.7065 84.3509 39.7155 84.4544 39.7502 84.5485C39.7849 84.6426 39.8436 84.723 39.9189 84.7796C39.9943 84.8362 40.0828 84.8664 40.1734 84.8664C40.2949 84.8664 40.4115 84.8121 40.4974 84.7156C40.5833 84.619 40.6316 84.488 40.6316 84.3514Z" fill="#263238"/>
<path d="M40.6316 86.0817C40.6316 85.9799 40.6047 85.8803 40.5544 85.7956C40.504 85.711 40.4325 85.645 40.3488 85.606C40.265 85.567 40.1729 85.5568 40.0841 85.5767C39.9952 85.5965 39.9136 85.6456 39.8495 85.7176C39.7854 85.7896 39.7418 85.8814 39.7241 85.9813C39.7065 86.0812 39.7155 86.1847 39.7502 86.2788C39.7849 86.3729 39.8436 86.4533 39.9189 86.5099C39.9943 86.5665 40.0828 86.5967 40.1734 86.5967C40.2949 86.5967 40.4115 86.5424 40.4974 86.4459C40.5833 86.3493 40.6316 86.2183 40.6316 86.0817Z" fill="#263238"/>
</svg>
