<svg width="79" height="68" viewBox="0 0 79 68" fill="none" xmlns="http://www.w3.org/2000/svg">
<path d="M39.8895 67.4014C48.1148 67.4014 54.7828 59.9061 54.7828 50.6602C54.7828 41.4142 48.1148 33.9189 39.8895 33.9189C31.6641 33.9189 24.9962 41.4142 24.9962 50.6602C24.9962 59.9061 31.6641 67.4014 39.8895 67.4014Z" fill="#90CAF9" stroke="#263238" stroke-linecap="round" stroke-linejoin="round"/>
<path d="M61.1827 61.809C64.3811 57.3015 66.3828 51.8706 66.9575 46.1411C67.5321 40.4116 66.6564 34.6161 64.4311 29.4212C62.2057 24.2262 58.7211 19.8429 54.378 16.7752C50.0349 13.7075 45.0097 12.08 39.8803 12.08C34.751 12.08 29.7257 13.7075 25.3826 16.7752C21.0395 19.8429 17.5549 24.2262 15.3296 29.4212C13.1043 34.6161 12.2286 40.4116 12.8032 46.1411C13.3779 51.8706 15.3795 57.3015 18.578 61.809H61.1827Z" fill="white" stroke="#263238" stroke-linecap="round" stroke-linejoin="round"/>
<path d="M56.5556 31.1485H22.536C20.4664 31.1485 18.7886 33.0344 18.7886 35.3608V48.9145C18.7886 51.2409 20.4664 53.1268 22.536 53.1268H56.5556C58.6252 53.1268 60.303 51.2409 60.303 48.9145V35.3608C60.303 33.0344 58.6252 31.1485 56.5556 31.1485Z" fill="#90CAF9" stroke="#263238" stroke-linecap="round" stroke-linejoin="round"/>
<path d="M23.2782 41.2468C23.7281 39.8308 24.5481 38.6006 25.6307 37.7174C26.7134 36.8343 28.0081 36.3394 29.3452 36.2977C30.6824 36.2559 31.9995 36.6692 33.1241 37.4835C34.2487 38.2977 35.1281 39.4748 35.6473 40.8606" stroke="#263238" stroke-width="5" stroke-linecap="round" stroke-linejoin="round"/>
<path d="M43.7971 41.2468C44.247 39.8308 45.067 38.6006 46.1497 37.7174C47.2323 36.8343 48.527 36.3394 49.8641 36.2977C51.2013 36.2559 52.5184 36.6692 53.643 37.4835C54.7676 38.2977 55.6471 39.4748 56.1662 40.8606" stroke="#263238" stroke-width="5" stroke-linecap="round" stroke-linejoin="round"/>
<path d="M36.2977 46.3397C36.4127 47.3609 36.8552 48.2998 37.5422 48.9804C38.2291 49.6611 39.1134 50.0366 40.0291 50.0366C40.9448 50.0366 41.829 49.6611 42.516 48.9804C43.2029 48.2998 43.6454 47.3609 43.7604 46.3397H36.2977Z" fill="white" stroke="#263238" stroke-linecap="round" stroke-linejoin="round"/>
<path d="M75.1459 48.0803C74.3902 48.0803 73.6654 47.7428 73.131 47.1421C72.5967 46.5415 72.2965 45.7268 72.2965 44.8773V37.5906C72.2958 37.1696 72.3691 36.7525 72.512 36.3633C72.655 35.9741 72.8648 35.6204 73.1294 35.3224C73.3941 35.0244 73.7084 34.788 74.0544 34.6268C74.4004 34.4655 74.7713 34.3824 75.1459 34.3825C75.5205 34.3818 75.8915 34.4641 76.2378 34.6248C76.584 34.7854 76.8987 35.0213 77.1638 35.3188C77.4288 35.6163 77.6391 35.9696 77.7826 36.3585C77.9261 36.7475 78 37.1644 78 37.5855V44.8721C78.0006 45.2936 77.9272 45.7111 77.784 46.1006C77.6407 46.4902 77.4305 46.8441 77.1654 47.1421C76.9003 47.4402 76.5854 47.6765 76.2388 47.8375C75.8923 47.9984 75.5209 48.081 75.1459 48.0803Z" fill="#263238" stroke="#263238" stroke-linecap="round" stroke-linejoin="round"/>
<path d="M3.85406 48.0803C3.47947 48.081 3.10845 47.9986 2.7622 47.8379C2.41596 47.6773 2.1013 47.4415 1.83621 47.144C1.57113 46.8465 1.36083 46.4931 1.21735 46.1042C1.07386 45.7153 1 45.2983 1 44.8773V37.5906C0.9994 37.1691 1.07281 36.7517 1.21603 36.3621C1.35924 35.9726 1.56945 35.6186 1.83459 35.3206C2.09973 35.0225 2.4146 34.7863 2.76114 34.6253C3.10769 34.4643 3.47909 34.3818 3.85406 34.3825C4.22825 34.3825 4.59879 34.4653 4.9445 34.6263C5.29022 34.7872 5.60434 35.0232 5.86894 35.3206C6.13354 35.618 6.34343 35.9711 6.48663 36.3597C6.62983 36.7483 6.70353 37.1649 6.70353 37.5855V44.8721C6.70413 45.2932 6.63087 45.7102 6.48794 46.0994C6.34501 46.4886 6.13522 46.8423 5.87056 47.1403C5.6059 47.4383 5.29158 47.6747 4.94556 47.836C4.59955 47.9973 4.22864 48.0803 3.85406 48.0803Z" fill="#263238" stroke="#263238" stroke-linecap="round" stroke-linejoin="round"/>
<path d="M12.9889 15.2003C10.4685 19.3865 9.12464 24.3273 9.13162 29.3821V34.6759" stroke="#263238" stroke-width="14" stroke-linecap="round" stroke-linejoin="round"/>
<path d="M67.083 15.2209C65.0204 11.7665 62.2331 8.93595 58.9669 6.97903C55.7008 5.02211 52.0564 3.999 48.3553 4.00001H31.7028C28.0068 3.99711 24.3669 5.01573 21.1036 6.96615C17.8402 8.91658 15.0535 11.739 12.9888 15.1849" stroke="#263238" stroke-width="7" stroke-linecap="round" stroke-linejoin="round"/>
<path d="M70.9221 34.6759V29.3822C70.9291 24.3367 69.592 19.4045 67.0831 15.2209" stroke="#263238" stroke-width="14" stroke-linecap="round" stroke-linejoin="round"/>
<path d="M11.4038 28.9754H7.58315C5.37184 28.9754 3.57922 30.9904 3.57922 33.4761V48.3532C3.57922 50.8389 5.37184 52.8539 7.58315 52.8539H11.4038C13.6151 52.8539 15.4077 50.8389 15.4077 48.3532V33.4761C15.4077 30.9904 13.6151 28.9754 11.4038 28.9754Z" fill="white" stroke="#263238" stroke-linecap="round" stroke-linejoin="round"/>
<path d="M10.0981 28.9754H8.89325V52.8539H10.0981V28.9754Z" fill="#90CAF9" stroke="#263238" stroke-linecap="round" stroke-linejoin="round"/>
<path d="M71.7467 28.9754H67.926C65.7147 28.9754 63.9221 30.9904 63.9221 33.4761V48.3532C63.9221 50.8389 65.7147 52.8539 67.926 52.8539H71.7467C73.958 52.8539 75.7506 50.8389 75.7506 48.3532V33.4761C75.7506 30.9904 73.958 28.9754 71.7467 28.9754Z" fill="white" stroke="#263238" stroke-linecap="round" stroke-linejoin="round"/>
<path d="M70.4411 28.9754H69.2362V52.8539H70.4411V28.9754Z" fill="#90CAF9" stroke="#263238" stroke-linecap="round" stroke-linejoin="round"/>
<path d="M39.9856 26.8074C42.0725 26.808 44.1263 26.2211 45.9596 25.1003C47.7928 23.9795 49.3473 22.3606 50.481 20.3911L53.0647 15.8955C48.9705 13.3539 44.363 12.0401 39.686 12.0807C35.009 12.1213 30.4201 13.5149 26.3612 16.1272L30.2506 21.5549C31.4207 23.1928 32.9026 24.515 34.5874 25.424C36.2721 26.333 38.1168 26.8058 39.9856 26.8074Z" fill="#90CAF9" stroke="#263238" stroke-linecap="round" stroke-linejoin="round"/>
<path d="M40.6316 55.3514C40.6316 55.2496 40.6047 55.15 40.5544 55.0653C40.504 54.9807 40.4325 54.9147 40.3488 54.8757C40.265 54.8367 40.1729 54.8265 40.0841 54.8464C39.9952 54.8663 39.9136 54.9153 39.8495 54.9873C39.7854 55.0593 39.7418 55.1511 39.7241 55.251C39.7065 55.3509 39.7155 55.4544 39.7502 55.5485C39.7849 55.6426 39.8436 55.723 39.9189 55.7796C39.9943 55.8362 40.0828 55.8664 40.1734 55.8664C40.2949 55.8664 40.4115 55.8121 40.4974 55.7156C40.5833 55.619 40.6316 55.488 40.6316 55.3514Z" fill="#263238"/>
<path d="M40.6316 57.0817C40.6316 56.9799 40.6047 56.8803 40.5544 56.7956C40.504 56.711 40.4325 56.645 40.3488 56.606C40.265 56.567 40.1729 56.5568 40.0841 56.5767C39.9952 56.5965 39.9136 56.6456 39.8495 56.7176C39.7854 56.7896 39.7418 56.8814 39.7241 56.9813C39.7065 57.0812 39.7155 57.1847 39.7502 57.2788C39.7849 57.3729 39.8436 57.4533 39.9189 57.5099C39.9943 57.5665 40.0828 57.5967 40.1734 57.5967C40.2949 57.5967 40.4115 57.5424 40.4974 57.4459C40.5833 57.3493 40.6316 57.2183 40.6316 57.0817Z" fill="#263238"/>
</svg>
