<svg width="64" height="64" viewBox="0 0 64 64" fill="none" xmlns="http://www.w3.org/2000/svg">
<path d="M32.3237 64C39.1604 64 44.7026 56.9068 44.7026 48.1569C44.7026 39.407 39.1604 32.3138 32.3237 32.3138C25.4871 32.3138 19.9449 39.407 19.9449 48.1569C19.9449 56.9068 25.4871 64 32.3237 64Z" fill="#90CAF9" stroke="#263238" stroke-linecap="round" stroke-linejoin="round"/>
<path d="M50.0219 58.7076C52.6804 54.4419 54.3441 49.3024 54.8218 43.8803C55.2994 38.4581 54.5715 32.9736 52.7219 28.0573C50.8723 23.1411 47.976 18.9929 44.3661 16.0898C40.7563 13.1866 36.5795 11.6465 32.3161 11.6465C28.0527 11.6465 23.8759 13.1866 20.2661 16.0898C16.6562 18.9929 13.7599 23.1411 11.9103 28.0573C10.0607 32.9736 9.33281 38.4581 9.81044 43.8803C10.2881 49.3024 11.9518 54.4419 14.6103 58.7076H50.0219Z" fill="white" stroke="#263238" stroke-linecap="round" stroke-linejoin="round"/>
<path d="M46.1761 29.692H17.9001C16.1799 29.692 14.7854 31.4768 14.7854 33.6784V46.5049C14.7854 48.7065 16.1799 50.4912 17.9001 50.4912H46.1761C47.8963 50.4912 49.2908 48.7065 49.2908 46.5049V33.6784C49.2908 31.4768 47.8963 29.692 46.1761 29.692Z" fill="#90CAF9" stroke="#263238" stroke-linecap="round" stroke-linejoin="round"/>
<path d="M18.517 39.2485C18.8909 37.9085 19.5725 36.7443 20.4723 35.9085C21.3722 35.0728 22.4483 34.6044 23.5597 34.5649C24.6711 34.5254 25.7659 34.9166 26.7006 35.6871C27.6353 36.4576 28.3663 37.5716 28.7978 38.883" stroke="#263238" stroke-width="5" stroke-linecap="round" stroke-linejoin="round"/>
<path d="M35.5717 39.2485C35.9456 37.9085 36.6272 36.7443 37.527 35.9085C38.4268 35.0728 39.503 34.6044 40.6144 34.5649C41.7258 34.5254 42.8205 34.9166 43.7552 35.6871C44.69 36.4576 45.421 37.5716 45.8525 38.883" stroke="#263238" stroke-width="5" stroke-linecap="round" stroke-linejoin="round"/>
<path d="M29.3384 44.0682C29.434 45.0346 29.8018 45.9232 30.3728 46.5673C30.9437 47.2113 31.6787 47.5667 32.4398 47.5667C33.2009 47.5667 33.9359 47.2113 34.5069 46.5673C35.0778 45.9232 35.4456 45.0346 35.5412 44.0682H29.3384Z" fill="white" stroke="#263238" stroke-linecap="round" stroke-linejoin="round"/>
<path d="M61.6279 45.7154C60.9997 45.7154 60.3973 45.396 59.9531 44.8276C59.509 44.2591 59.2595 43.4881 59.2595 42.6842V35.7885C59.259 35.39 59.3199 34.9954 59.4387 34.627C59.5575 34.2587 59.7318 33.924 59.9518 33.642C60.1718 33.36 60.433 33.1363 60.7206 32.9836C61.0082 32.831 61.3165 32.7524 61.6279 32.7524C61.9392 32.7518 62.2476 32.8297 62.5354 32.9818C62.8232 33.1338 63.0847 33.357 63.305 33.6385C63.5254 33.9201 63.7001 34.2544 63.8194 34.6225C63.9387 34.9906 64.0001 35.3852 64.0001 35.7836V42.6793C64.0006 43.0782 63.9395 43.4733 63.8205 43.842C63.7015 44.2106 63.5268 44.5455 63.3064 44.8276C63.086 45.1096 62.8243 45.3333 62.5363 45.4856C62.2482 45.638 61.9395 45.7161 61.6279 45.7154Z" fill="#263238" stroke="#263238" stroke-linecap="round" stroke-linejoin="round"/>
<path d="M2.3722 45.7154C2.06086 45.7161 1.75247 45.6381 1.46469 45.4861C1.1769 45.334 0.915362 45.1109 0.695033 44.8293C0.474704 44.5478 0.299912 44.2134 0.180651 43.8453C0.0613897 43.4773 2.66366e-06 43.0827 3.06603e-06 42.6842V35.7885C-0.000498404 35.3896 0.0605188 34.9945 0.179555 34.6259C0.298592 34.2573 0.473306 33.9223 0.693685 33.6403C0.914064 33.3582 1.17577 33.1346 1.46381 32.9822C1.75184 32.8299 2.06054 32.7518 2.3722 32.7524C2.68322 32.7524 2.9912 32.8309 3.27855 32.9832C3.5659 33.1355 3.82699 33.3588 4.04691 33.6403C4.26684 33.9217 4.44129 34.2559 4.56031 34.6237C4.67934 34.9914 4.7406 35.3856 4.7406 35.7836V42.6793C4.7411 43.0778 4.68021 43.4725 4.56141 43.8408C4.44261 44.2092 4.26823 44.5439 4.04826 44.8259C3.82828 45.1079 3.56702 45.3316 3.27943 45.4842C2.99183 45.6368 2.68354 45.7154 2.3722 45.7154Z" fill="#263238" stroke="#263238" stroke-linecap="round" stroke-linejoin="round"/>
<path d="M9.9649 14.5994C7.86996 18.5611 6.75301 23.2367 6.75881 28.0204V33.0302" stroke="#263238" stroke-width="14" stroke-linecap="round" stroke-linejoin="round"/>
<path d="M54.9262 14.6189C53.2118 11.3498 50.895 8.67114 48.1804 6.81921C45.4657 4.96727 42.4365 3.99906 39.3603 4.00001H25.5193C22.4473 3.99727 19.4219 4.96123 16.7095 6.80702C13.9971 8.65281 11.6809 11.3238 9.96478 14.5848" stroke="#263238" stroke-width="7" stroke-linecap="round" stroke-linejoin="round"/>
<path d="M58.1171 33.0302V28.0205C58.1229 23.2457 57.0116 18.5781 54.9262 14.6189" stroke="#263238" stroke-width="14" stroke-linecap="round" stroke-linejoin="round"/>
<path d="M8.6473 27.6355H5.47167C3.6337 27.6355 2.14374 29.5424 2.14374 31.8947V45.9737C2.14374 48.326 3.6337 50.2329 5.47167 50.2329H8.6473C10.4853 50.2329 11.9752 48.326 11.9752 45.9737V31.8947C11.9752 29.5424 10.4853 27.6355 8.6473 27.6355Z" fill="white" stroke="#263238" stroke-linecap="round" stroke-linejoin="round"/>
<path d="M7.5621 27.6355H6.56067V50.2329H7.5621V27.6355Z" fill="#90CAF9" stroke="#263238" stroke-linecap="round" stroke-linejoin="round"/>
<path d="M58.8025 27.6355H55.6268C53.7889 27.6355 52.2989 29.5424 52.2989 31.8947V45.9737C52.2989 48.326 53.7889 50.2329 55.6268 50.2329H58.8025C60.6404 50.2329 62.1304 48.326 62.1304 45.9737V31.8947C62.1304 29.5424 60.6404 27.6355 58.8025 27.6355Z" fill="white" stroke="#263238" stroke-linecap="round" stroke-linejoin="round"/>
<path d="M57.7173 27.6355H56.7159V50.2329H57.7173V27.6355Z" fill="#90CAF9" stroke="#263238" stroke-linecap="round" stroke-linejoin="round"/>
<path d="M32.4036 25.5838C34.1381 25.5844 35.8452 25.029 37.369 23.9683C38.8927 22.9077 40.1847 21.3755 41.127 19.5117L43.2746 15.2573C39.8716 12.8521 36.042 11.6088 32.1546 11.6472C28.2672 11.6856 24.4531 13.0044 21.0795 15.4766L24.3122 20.6131C25.2847 22.1632 26.5165 23.4144 27.9168 24.2747C29.3171 25.1349 30.8503 25.5823 32.4036 25.5838Z" fill="#90CAF9" stroke="#263238" stroke-linecap="round" stroke-linejoin="round"/>
<path d="M32.9406 52.5965C32.9406 52.5001 32.9182 52.4059 32.8764 52.3258C32.8345 52.2456 32.7751 52.1832 32.7055 52.1463C32.6359 52.1094 32.5594 52.0998 32.4855 52.1186C32.4116 52.1374 32.3438 52.1838 32.2905 52.2519C32.2373 52.3201 32.201 52.4069 32.1863 52.5014C32.1716 52.596 32.1792 52.694 32.208 52.783C32.2368 52.8721 32.2856 52.9482 32.3482 53.0017C32.4109 53.0553 32.4845 53.0838 32.5598 53.0838C32.6608 53.0838 32.7576 53.0325 32.829 52.9411C32.9004 52.8497 32.9406 52.7258 32.9406 52.5965Z" fill="#263238"/>
<path d="M32.9406 54.2339C32.9406 54.1376 32.9182 54.0433 32.8764 53.9632C32.8345 53.8831 32.7751 53.8206 32.7055 53.7837C32.6359 53.7468 32.5594 53.7372 32.4855 53.756C32.4116 53.7748 32.3438 53.8212 32.2905 53.8893C32.2373 53.9575 32.201 54.0443 32.1863 54.1389C32.1716 54.2334 32.1792 54.3314 32.208 54.4204C32.2368 54.5095 32.2856 54.5856 32.3482 54.6391C32.4109 54.6927 32.4845 54.7213 32.5598 54.7213C32.6608 54.7213 32.7576 54.6699 32.829 54.5785C32.9004 54.4871 32.9406 54.3632 32.9406 54.2339Z" fill="#263238"/>
</svg>
